<?xml version="1.0" standalone="no"?>
<!DOCTYPE svg PUBLIC "-//W3C//DTD SVG 20010904//EN"
 "http://www.w3.org/TR/2001/REC-SVG-20010904/DTD/svg10.dtd">
<svg version="1.0" xmlns="http://www.w3.org/2000/svg"
 width="300.000000pt" height="300.000000pt" viewBox="0 0 300.000000 300.000000"
 preserveAspectRatio="xMidYMid meet">
<metadata>
Created by potrace 1.14, written by Peter Selinger 2001-2017
</metadata>
<g transform="translate(0.000000,300.000000) scale(0.100000,-0.100000)"
fill="#000000" stroke="none">
<path d="M273 2958 c0 -81 -14 -373 -23 -498 -5 -69 -12 -208 -15 -310 -4
-101 -8 -187 -10 -190 -1 -3 -6 -81 -9 -175 -4 -93 -9 -195 -11 -225 -6 -62
-22 -324 -30 -475 -3 -55 -8 -122 -11 -150 -8 -67 -11 -93 -19 -205 -4 -52 -9
-98 -11 -102 -10 -16 51 -7 150 21 55 16 135 37 176 46 41 9 88 21 104 26 16
5 42 9 57 9 15 0 30 4 34 10 3 5 18 9 33 9 42 -1 136 24 145 38 4 7 23 15 43
19 21 4 39 15 46 28 11 22 27 36 41 36 5 0 1 -8 -9 -17 -22 -23 -15 -123 14
-178 32 -62 108 -152 160 -190 51 -38 222 -129 262 -139 l25 -7 -23 14 c-12 7
-19 16 -16 20 4 4 0 7 -10 7 -27 0 -119 47 -167 85 -24 19 -50 35 -57 35 -21
0 -108 95 -131 144 -12 25 -25 70 -28 100 -5 53 -4 57 27 86 27 26 33 40 42
102 5 40 9 92 9 116 -1 32 2 42 15 42 14 0 14 -3 4 -16 -8 -8 -9 -14 -4 -12 5
2 9 -1 9 -7 0 -5 -3 -9 -7 -7 -5 1 -8 -2 -8 -8 0 -5 6 -10 13 -10 7 0 8 -3 2
-8 -5 -4 -11 -15 -12 -25 -1 -14 4 -17 18 -14 10 3 19 1 19 -5 0 -5 5 -6 12
-2 8 5 9 0 5 -16 -4 -16 -3 -20 5 -12 7 7 17 5 32 -10 14 -14 17 -22 9 -25
-10 -3 -10 -10 -2 -24 5 -11 14 -17 19 -14 5 3 11 1 15 -5 3 -5 0 -10 -7 -10
-10 0 -9 -3 2 -9 8 -6 17 -8 21 -5 4 2 9 -2 12 -9 3 -8 16 -13 29 -12 12 1 30
-3 38 -10 16 -14 61 -30 73 -27 4 1 7 -8 7 -20 0 -17 3 -19 9 -9 10 15 31 7
31 -13 0 -7 11 -19 25 -26 13 -7 26 -20 28 -29 4 -13 5 -13 6 2 0 9 7 17 14
17 8 0 7 4 -3 10 -9 6 -10 10 -3 10 6 0 15 -5 18 -10 4 -6 10 -8 15 -5 5 3 12
0 16 -6 5 -8 8 -8 13 0 4 6 21 12 38 14 17 2 39 11 48 20 9 10 21 15 26 12 5
-4 9 -2 9 4 0 6 13 17 30 26 32 17 44 19 36 7 -8 -14 20 -41 42 -39 11 0 18 6
16 12 -3 5 2 1 10 -9 9 -11 16 -14 16 -8 0 7 4 12 9 12 5 0 18 -32 28 -72 28
-105 71 -122 75 -29 2 48 20 64 78 64 38 0 115 -34 123 -55 4 -9 6 -8 6 3 1 9
-11 22 -26 29 l-28 13 34 14 c39 16 61 11 61 -15 0 -14 15 -23 58 -36 31 -10
60 -23 63 -28 3 -5 35 -11 70 -12 85 -4 263 -64 404 -136 l110 -55 -6 260 c-6
244 -15 490 -24 685 -2 47 -6 261 -9 475 -4 400 3 309 19 -230 4 -143 9 -271
11 -285 1 -14 3 -29 3 -34 1 -10 16 1 16 12 1 4 6 17 13 29 11 20 10 23 -3 23
-12 0 -14 7 -10 33 4 17 11 34 16 36 7 2 8 143 3 420 -4 229 -4 414 -1 411 3
-3 8 -97 12 -210 6 -207 18 -290 37 -256 5 9 14 13 21 9 7 -4 5 2 -3 12 -8 10
-10 16 -3 12 8 -5 11 3 10 28 -1 23 -7 35 -17 35 -12 0 -12 2 -2 9 11 7 13 66
10 319 -1 171 -1 308 1 306 2 -2 7 -79 11 -171 5 -134 7 -87 8 230 l2 397
-780 0 -780 0 0 -24 c0 -23 -3 -24 -41 -21 -25 2 -49 12 -61 24 -18 21 -27 21
-542 21 l-523 0 0 -42z m912 -558 c-3 -4 2 -10 10 -14 8 -3 15 -1 15 4 0 5 12
7 26 4 15 -3 32 -6 38 -7 6 -1 14 -5 17 -9 3 -5 20 -10 39 -12 19 -2 36 -9 38
-15 2 -6 9 -11 15 -11 6 0 19 -8 30 -17 15 -14 21 -15 24 -5 3 9 13 4 31 -15
19 -20 24 -23 19 -9 -7 19 -7 19 11 3 10 -9 21 -15 24 -11 3 3 15 -6 26 -20
11 -15 25 -26 32 -26 6 0 9 -4 6 -9 -6 -9 26 -21 60 -21 11 0 29 -9 39 -20 10
-11 26 -20 35 -20 10 0 29 -10 44 -21 15 -12 30 -19 33 -15 4 3 0 6 -7 6 -7 0
-11 2 -8 5 8 8 38 -6 33 -16 -7 -11 28 -29 58 -29 19 0 28 -8 35 -30 10 -28
-1 -54 -11 -28 -4 9 -6 9 -6 1 -1 -6 7 -19 17 -29 16 -17 16 -17 -3 -12 -11 3
-29 9 -40 13 -16 5 -17 5 -5 -4 11 -8 -6 -11 -67 -11 -58 0 -94 -6 -127 -20
-25 -10 -46 -17 -46 -13 0 3 -7 0 -15 -7 -8 -7 -15 -21 -15 -31 0 -11 -4 -19
-9 -19 -8 0 -3 -80 6 -90 2 -2 7 0 11 6 4 6 17 16 29 23 21 11 22 10 14 -12
-8 -21 -7 -23 25 -19 30 4 33 6 18 17 -13 9 -14 14 -5 19 7 5 22 -3 36 -18 31
-33 58 -33 85 1 23 30 43 21 34 -15 -7 -26 -46 -32 -113 -19 -22 5 -30 3 -28
-6 3 -15 37 -36 57 -36 8 0 2 6 -15 14 l-30 15 30 -5 c78 -14 165 1 165 27 0
5 4 7 9 3 5 -3 12 -1 15 4 9 14 -50 59 -94 72 -35 11 -54 28 -32 30 4 0 16 2
27 4 60 11 134 -28 151 -80 3 -11 13 -28 22 -37 8 -10 12 -18 7 -18 -4 0 -1
-8 6 -17 8 -9 9 -14 3 -10 -6 3 -11 -1 -11 -9 0 -8 5 -13 12 -10 15 5 9 -75
-6 -85 -7 -4 -8 -12 -5 -18 4 -6 2 -11 -4 -11 -6 0 -8 -4 -5 -10 3 -5 -1 -44
-10 -85 -15 -75 -32 -115 -48 -115 -4 0 -5 -5 -1 -12 4 -6 -1 -17 -10 -24 -10
-7 -17 -16 -17 -21 1 -18 -11 -43 -19 -38 -5 3 -11 -8 -15 -25 -4 -16 -11 -30
-16 -30 -5 0 -9 -9 -9 -21 0 -11 -4 -17 -10 -14 -6 4 -10 -7 -10 -25 0 -18 -6
-33 -15 -36 -8 -4 -12 -10 -9 -15 3 -5 -3 -9 -13 -9 -15 0 -16 -2 -3 -10 13
-8 13 -10 -1 -10 -9 0 -30 -7 -45 -15 -24 -12 -25 -15 -9 -15 16 0 17 -2 6 -9
-8 -5 -29 -8 -48 -6 -35 2 -40 -3 -20 -24 6 -7 8 -12 2 -11 -31 6 -43 -1 -38
-22 5 -21 2 -20 -22 7 -14 17 -24 24 -20 18 3 -7 1 -13 -5 -13 -6 0 -8 -5 -4
-12 5 -8 0 -9 -14 -6 -16 5 -22 1 -23 -10 0 -10 -6 -5 -13 12 l-13 29 -11 -29
c-8 -23 -11 -25 -12 -9 -2 17 -3 16 -10 -5 -6 -20 -8 -21 -9 -6 -1 19 -1 19
-15 1 -12 -17 -13 -17 -20 8 -8 32 -20 34 -39 6 -9 -12 -16 -16 -19 -9 -5 17
-68 22 -86 7 -13 -10 -15 -8 -10 14 3 16 0 26 -8 26 -7 0 -10 -6 -7 -12 5 -16
-20 -26 -37 -15 -7 4 -10 15 -7 24 3 8 1 18 -5 22 -7 5 -8 2 -4 -7 5 -8 2 -8
-6 2 -23 28 -53 40 -68 26 -10 -9 -11 -9 -5 2 5 9 3 12 -6 9 -8 -3 -19 0 -24
6 -10 10 -49 85 -50 96 -2 19 -29 70 -37 70 -6 0 -8 9 -5 20 3 11 2 18 -3 15
-4 -3 -14 26 -21 63 -16 82 -16 80 -17 115 -1 16 -6 26 -11 22 -5 -3 -13 0
-17 6 -5 8 -3 9 6 4 10 -6 12 -1 7 25 -4 18 -7 39 -7 47 0 8 -3 12 -8 10 -4
-3 -9 18 -12 46 -9 102 -2 172 24 241 14 38 26 81 26 97 0 44 17 80 35 73 20
-8 19 10 -1 27 -10 8 -14 24 -12 46 2 18 1 33 -2 33 -3 0 -6 23 -7 50 -2 33 1
49 8 44 6 -3 9 2 7 12 -2 14 3 19 20 18 25 -1 26 0 11 28 -10 19 -9 20 10 15
12 -3 19 -1 15 4 -3 5 -1 9 5 9 5 0 18 13 27 30 10 16 25 31 33 33 22 4 52 -4
46 -13z m-248 -112 c-3 -8 -6 -5 -6 6 -1 11 2 17 5 13 3 -3 4 -12 1 -19z
m1840 -400 c-2 -13 -4 -3 -4 22 0 25 2 35 4 23 2 -13 2 -33 0 -45z m193 3 c0
-5 -7 -12 -16 -15 -14 -5 -15 -4 -4 9 14 17 20 19 20 6z m-182 -143 c-1 -116
-5 -102 -10 35 -2 42 0 77 5 77 4 0 6 -51 5 -112z m-654 -9 c-1 -73 -25 -174
-59 -254 -21 -48 -18 -45 -44 -50 -18 -3 -20 -1 -11 16 6 11 15 17 21 14 5 -4
9 4 9 17 0 13 7 33 15 45 9 13 11 23 5 25 -16 5 0 155 17 155 10 0 12 -11 9
-41 l-5 -41 19 35 c21 38 28 145 10 153 -6 3 -5 4 2 3 9 -2 13 -24 12 -77z
m-1294 49 c0 -13 7 -45 14 -73 l14 -50 -1 45 c-1 25 2 46 7 48 15 5 36 -76 36
-137 0 -36 5 -61 16 -73 13 -14 14 -21 5 -32 -10 -12 -8 -17 8 -25 11 -7 18
-17 15 -25 -8 -21 -63 0 -74 28 -10 24 -48 221 -54 279 -2 20 1 37 5 37 5 0 9
-10 9 -22z m1963 -543 c3 -183 2 -261 -2 -200 -11 135 -20 602 -11 545 4 -25
10 -180 13 -345z m-342 284 c-5 -13 -10 -19 -10 -12 -1 15 10 45 15 40 3 -2 0
-15 -5 -28z m3 -151 c5 -10 17 -18 27 -18 14 0 19 -7 18 -27 -2 -25 -2 -26 -6
-5 -3 17 -10 23 -22 19 -14 -3 -21 8 -35 55 -11 36 -14 67 -9 81 6 17 9 10 14
-33 3 -30 9 -63 13 -72z m436 102 c-12 -8 -12 -10 -1 -10 8 0 12 -3 8 -6 -9
-9 -28 6 -22 17 4 5 12 9 18 9 7 0 6 -4 -3 -10z m-163 -167 c-2 -32 -3 -6 -3
57 0 63 1 89 3 58 2 -32 2 -84 0 -115z m10 -336 c-2 -23 -3 -1 -3 48 0 50 1
68 3 42 2 -26 2 -67 0 -90z m-260 -9 c-3 -8 -6 -5 -6 6 -1 11 2 17 5 13 3 -3
4 -12 1 -19z m26 -43 c-3 -9 -8 -14 -10 -11 -3 3 -2 9 2 15 9 16 15 13 8 -4z
m306 -74 c1 -73 -5 -61 -12 24 -4 44 -3 63 3 50 5 -11 9 -44 9 -74z m-2369 65
c0 -3 -4 -8 -10 -11 -5 -3 -10 -1 -10 4 0 6 5 11 10 11 6 0 10 -2 10 -4z m742
-28 c-7 -7 -12 -8 -12 -2 0 14 12 26 19 19 2 -3 -1 -11 -7 -17z m1389 9 c-1
-12 -15 -9 -19 4 -3 6 1 10 8 8 6 -3 11 -8 11 -12z m-806 -136 c-6 -5 -25 10
-25 20 0 5 6 4 14 -3 8 -7 12 -15 11 -17z m1042 -13 c-3 -7 -5 -2 -5 12 0 14
2 19 5 13 2 -7 2 -19 0 -25z m-60 -85 c-2 -21 -4 -4 -4 37 0 41 2 58 4 38 2
-21 2 -55 0 -75z m60 45 c-3 -8 -6 -5 -6 6 -1 11 2 17 5 13 3 -3 4 -12 1 -19z
m0 -105 c-2 -16 -4 -3 -4 27 0 30 2 43 4 28 2 -16 2 -40 0 -55z m-897 15 c0
-5 -4 -8 -10 -8 -5 0 -10 10 -10 23 0 18 2 19 10 7 5 -8 10 -18 10 -22z m910
-108 c0 -5 -5 -10 -11 -10 -5 0 -7 5 -4 10 3 6 8 10 11 10 2 0 4 -4 4 -10z"/>
<path d="M1157 2002 c-15 -2 -25 -8 -21 -13 6 -10 -44 -5 -54 6 -3 3 -19 -7
-35 -22 -20 -19 -28 -22 -24 -11 4 12 2 15 -8 12 -7 -3 -12 -13 -10 -22 2 -9
4 -19 4 -21 1 -3 6 0 13 7 8 8 17 8 30 1 10 -6 26 -9 36 -8 9 1 31 1 47 0 29
-2 29 -2 11 -16 -11 -8 -27 -15 -36 -15 -17 0 -60 -35 -60 -49 0 -5 15 -8 34
-7 19 0 32 4 29 9 -2 4 2 10 10 13 8 3 26 -6 40 -20 33 -32 47 -33 77 -1 24
25 50 33 50 15 0 -5 -8 -14 -17 -19 -15 -9 -12 -10 15 -11 29 0 32 3 27 20 -5
15 -2 18 14 15 24 -4 29 23 9 44 -11 10 -10 11 4 6 13 -5 15 -2 11 14 -3 12
-10 21 -17 21 -6 0 -6 4 3 9 9 6 10 11 2 15 -6 4 -11 4 -11 0 0 -4 -8 0 -17 8
-18 16 -106 27 -156 20z"/>
<path d="M1219 1810 c-20 -4 -44 -5 -53 -4 -9 1 -16 -1 -16 -6 0 -4 15 -10 34
-12 20 -2 32 0 29 6 -4 5 5 6 20 2 14 -3 28 -2 32 3 8 15 -6 18 -46 11z"/>
<path d="M1560 1773 c0 -4 5 -15 10 -23 8 -13 10 -13 10 2 0 9 -4 20 -10 23
-5 3 -10 3 -10 -2z"/>
<path d="M2003 1699 c-2 -23 3 -25 10 -4 4 8 3 16 -1 19 -4 3 -9 -4 -9 -15z"/>
<path d="M1570 1676 c0 -2 7 -9 15 -16 9 -7 15 -8 15 -2 0 5 -7 12 -15 16 -8
3 -15 4 -15 2z"/>
<path d="M1600 1631 c0 -5 5 -13 10 -16 6 -3 10 -2 10 4 0 5 -4 13 -10 16 -5
3 -10 2 -10 -4z"/>
<path d="M1646 1503 c-7 -22 -36 -33 -36 -14 0 19 -35 21 -87 6 -49 -15 -72
-35 -38 -35 8 0 15 -7 15 -15 0 -8 -5 -14 -12 -12 -6 1 -14 -9 -18 -23 l-7
-25 -4 25 c-3 22 -9 25 -42 25 -24 1 -47 -6 -60 -18 -12 -10 -28 -22 -35 -26
-11 -6 -11 -13 -1 -34 7 -15 16 -27 20 -27 4 0 14 -3 22 -6 11 -4 16 2 19 18
2 13 9 24 16 24 6 1 13 2 15 3 1 1 21 3 45 5 38 2 45 -1 57 -23 8 -14 14 -22
15 -18 0 5 7 2 15 -7 9 -8 23 -12 32 -9 11 4 14 3 9 -5 -4 -7 -22 -12 -41 -12
-19 0 -36 -4 -39 -9 -3 -4 5 -8 17 -8 42 -1 47 -3 48 -20 0 -15 2 -15 9 2 5
12 9 14 9 6 1 -8 -7 -23 -16 -34 -18 -19 -17 -19 17 -12 19 4 46 15 60 24 33
21 56 20 73 -3 9 -12 20 -17 31 -13 14 5 16 15 12 43 -7 41 -43 97 -57 89 -5
-4 -9 -1 -9 5 0 6 -4 9 -9 6 -5 -3 -34 7 -65 23 -31 17 -56 27 -56 24 0 -3 -9
2 -20 12 -33 30 -24 38 34 31 49 -7 56 -5 66 14 6 12 9 26 7 33 -2 7 -7 2 -11
-10z m4 -185 c0 -19 -16 -5 -17 14 -2 18 0 20 7 8 5 -8 10 -18 10 -22z m-10
-42 c0 -2 -9 -6 -20 -9 -11 -3 -20 -1 -20 4 0 5 9 9 20 9 11 0 20 -2 20 -4z"/>
<path d="M1335 1499 c-10 -15 -5 -17 39 -11 26 3 34 7 25 13 -19 12 -57 11
-64 -2z"/>
<path d="M1230 1373 c-19 -8 -40 -22 -47 -31 -14 -19 -17 -58 -5 -66 10 -6
108 17 119 27 4 5 4 8 -2 7 -25 -5 -45 1 -45 15 0 8 4 15 9 15 12 0 23 32 14
40 -4 4 -24 1 -43 -7z"/>
<path d="M1390 1350 c0 -5 5 -10 11 -10 5 0 7 5 4 10 -3 6 -8 10 -11 10 -2 0
-4 -4 -4 -10z"/>
<path d="M1490 1335 c0 -8 2 -15 4 -15 2 0 6 7 10 15 3 8 1 15 -4 15 -6 0 -10
-7 -10 -15z"/>
<path d="M1420 1290 c8 -5 22 -9 30 -9 10 0 8 3 -5 9 -27 12 -43 12 -25 0z"/>
<path d="M1375 1162 c-9 -24 -5 -32 15 -32 13 0 20 -7 20 -20 0 -21 14 -27 25
-11 3 6 18 6 38 0 27 -8 35 -6 48 10 9 11 19 18 23 16 3 -3 4 -2 1 2 -3 3 1
13 8 21 9 13 9 14 0 8 -7 -4 -13 -3 -13 3 0 5 -8 8 -18 6 -10 -2 -46 0 -80 4
-48 6 -62 4 -67 -7z"/>
<path d="M897 1539 c6 -22 20 -26 20 -4 0 8 -6 16 -13 19 -7 3 -10 -2 -7 -15z"/>
<path d="M231 2854 c0 -11 3 -14 6 -6 3 7 2 16 -1 19 -3 4 -6 -2 -5 -13z"/>
<path d="M182 1930 c0 -14 2 -19 5 -12 2 6 2 18 0 25 -3 6 -5 1 -5 -13z"/>
<path d="M171 1744 c0 -11 3 -14 6 -6 3 7 2 16 -1 19 -3 4 -6 -2 -5 -13z"/>
<path d="M2930 1750 c0 -5 5 -10 10 -10 6 0 10 5 10 10 0 6 -4 10 -10 10 -5 0
-10 -4 -10 -10z"/>
<path d="M163 1590 c0 -25 2 -35 4 -22 2 12 2 32 0 45 -2 12 -4 2 -4 -23z"/>
<path d="M152 1430 c0 -14 2 -19 5 -12 2 6 2 18 0 25 -3 6 -5 1 -5 -13z"/>
<path d="M2900 1299 c0 -5 5 -7 10 -4 6 3 10 8 10 11 0 2 -4 4 -10 4 -5 0 -10
-5 -10 -11z"/>
<path d="M2886 1030 c2 -151 7 -349 10 -440 6 -162 7 -165 32 -184 l25 -19 -6
229 c-13 444 -13 446 -31 456 -10 6 -16 22 -16 48 0 43 16 55 22 18 2 -13 4
18 5 67 0 50 -2 79 -5 65 -4 -23 -5 -24 -13 -5 -7 19 -8 19 -8 -2 -1 -13 3
-23 8 -23 5 0 8 -11 7 -24 -2 -36 -13 -18 -25 39 -7 36 -9 -24 -5 -225z"/>
<path d="M142 1260 c0 -19 2 -27 5 -17 2 9 2 25 0 35 -3 9 -5 1 -5 -18z"/>
<path d="M133 1100 c0 -25 2 -35 4 -22 2 12 2 32 0 45 -2 12 -4 2 -4 -23z"/>
<path d="M123 940 c0 -36 2 -50 4 -32 2 17 2 47 0 65 -2 17 -4 3 -4 -33z"/>
<path d="M1130 921 c0 -6 4 -13 10 -16 6 -3 7 1 4 9 -7 18 -14 21 -14 7z"/>
<path d="M110 803 c0 -32 -3 -92 -7 -133 -3 -41 -3 -72 1 -69 8 7 21 259 12
259 -3 0 -6 -26 -6 -57z"/>
<path d="M1690 554 c0 -7 -7 -20 -16 -28 -8 -9 -13 -16 -9 -16 8 0 -35 -62
-50 -72 -6 -5 -6 -8 3 -8 6 0 12 -5 12 -11 0 -5 -5 -7 -12 -3 -8 5 -9 2 -5 -9
3 -10 3 -17 -2 -17 -4 0 -8 -6 -9 -12 -3 -33 -10 -52 -20 -56 -7 -2 -10 -8 -6
-13 6 -11 76 -10 119 1 l30 8 -28 1 c-16 0 -26 5 -22 11 4 6 -7 8 -28 5 -22
-4 -38 -1 -43 6 -5 9 -2 10 9 6 9 -3 18 0 21 9 4 10 2 13 -7 8 -6 -4 -3 2 8
13 11 11 25 18 30 15 6 -3 7 -1 2 3 -4 5 -1 18 6 29 13 19 41 92 42 108 0 3 3
10 8 14 12 13 8 20 -13 20 -11 0 -20 -6 -20 -12z"/>
<path d="M139 493 c-1 -37 -3 -83 -5 -100 -1 -18 2 -33 7 -33 5 0 8 3 8 8 -1
4 0 9 1 12 8 16 7 171 -1 175 -5 4 -10 -23 -10 -62z"/>
<path d="M2010 472 c0 -20 -52 -74 -60 -62 -5 8 -9 7 -13 -4 -5 -12 0 -15 19
-14 19 2 31 13 46 41 11 22 17 42 14 45 -3 3 -6 0 -6 -6z"/>
<path d="M2972 395 c-1 -11 5 -29 13 -39 13 -17 15 -18 15 -3 0 9 -4 17 -9 17
-5 0 -12 10 -14 23 -4 19 -4 19 -5 2z"/>
<path d="M1855 370 c-3 -6 1 -7 9 -4 18 7 21 14 7 14 -6 0 -13 -4 -16 -10z"/>
<path d="M22 160 c-6 -11 -12 -51 -12 -90 0 -55 3 -70 15 -70 12 0 14 16 12
90 -1 49 -2 90 -2 90 0 0 -6 -9 -13 -20z"/>
<path d="M457 118 c-14 -60 -19 -121 -9 -114 5 3 13 33 17 67 7 61 2 90 -8 47z"/>
</g>
</svg>
